<svg width="1396" height="1014" viewBox="0 -125 350 570" style="background-color:#deca86" xmlns="http://www.w3.org/2000/svg"><circle fill="#080608" cx="179" cy="179" r="179"/><g fill="#fff"><path d="M311.396 187.15c-.333-3.439-2.88-7.487-3.652-8.646l-.125-.188-52.144-63.424-.264-.294c-2.851-2.904-5.307-4.571-7.3-4.954-1.787-.344-8.133-.563-10.779-.642L127.641 109c-1.952-.116-13.306-.508-18.908 5.405-5.753 6.073-6.98 12.674-7.232 22.732-.009.379-.018.841-.026 1.362H44c-6 0-6 9 0 9h57.408c-.019 5.201-.022 11.683-.018 18.5H57.5c-6 0-6 9 0 9h43.9c.011 6.69.027 13.305.044 19H74.5c-6 0-6 9 0 9h26.972l.028 7.768.037.555c.157 1.229 1.785 12.143 10.278 16.861 4.658 2.588 8.588 3.458 11.128 3.727 2.433 11.255 12.461 19.715 24.433 19.715 12.249 0 22.46-8.856 24.587-20.5h52.576c2.127 11.644 12.339 20.5 24.587 20.5 11.985 0 22.022-8.479 24.441-19.752 8.853-.441 13.032-5.201 13.495-5.767.797-.971 19.526-23.783 20.937-25.524 2.394-2.957 3.711-10.186 3.397-13.432zm-200.897-49.788c.234-9.349 1.303-13.11 4.768-16.768 2.078-2.192 8.23-2.844 11.927-2.605l.153.01H187v48h-76.609c-.009-13.042.012-24.83.108-28.637zm36.876 105.263c-8.822 0-16-7.178-16-16s7.178-16 16-16 16 7.178 16 16-7.178 16-16 16zm101.75 0c-8.822 0-16-7.178-16-16s7.178-16 16-16 16 7.178 16 16-7.178 16-16 16zm51.836-47.654c-1.655 2.039-19.667 23.979-20.802 25.36-.228.237-2.153 2.108-6.321 2.507-1.83-11.994-12.215-21.213-24.713-21.213-12.248 0-22.46 8.856-24.587 20.5h-52.576c-2.127-11.644-12.338-20.5-24.587-20.5-12.479 0-22.85 9.19-24.704 21.157-1.564-.302-3.798-.974-6.485-2.466-3.713-2.063-5.322-7.642-5.687-9.903-.004-1.067-.018-4.701-.034-9.827l-.013-4.196c-.018-6.183-.038-13.739-.05-21.39H191.5a4.5 4.5 0 004.5-4.5V118h40.933c3.462.104 7.629.294 8.987.443.602.376 1.796 1.388 2.738 2.328l51.713 62.902c.991 1.53 1.995 3.632 2.066 4.345.162 1.658-.81 5.875-1.476 6.953z"/><path d="M259 166h-39v-36a4.5 4.5 0 00-9 0v40.5a4.5 4.5 0 004.5 4.5H259a4.5 4.5 0 000-9z"/></g></svg>