<svg width="1396" height="1014" viewBox="0 -125 350 570" style="background-color:#deca86" xmlns="http://www.w3.org/2000/svg"><circle fill="#080608" cx="179" cy="179" r="179"/><path fill="#fff" d="M224.808 205.44c-1.724-18.39-21.374-27.583-39.641-33.095v-46.187c6.802.999 12.868 3.121 16.513 5.724 9.136 6.525 10.479 21.277 10.505 21.583.256 3.299 3.163 5.757 6.434 5.519a6.001 6.001 0 005.532-6.435c-.063-.836-1.703-20.579-15.496-30.431-5.245-3.746-13.893-6.83-23.487-8.032V92a6 6 0 00-12 0v21.643c-11.912.645-23.764 4.7-31.369 14.297-6.835 8.625-8.803 18.621-5.539 28.146 3.709 10.828 13.972 19.754 26.146 22.74.967.237 1.987.483 3.051.74 2.322.561 4.938 1.194 7.712 1.91v49.252c-11.218-.958-20.076-4.392-25.266-9.881-4.163-4.403-6.04-10.051-5.739-17.265a6 6 0 00-5.745-6.245c-3.32-.117-6.107 2.435-6.245 5.745-.437 10.474 2.595 19.224 9.01 26.009 9.105 9.631 22.684 12.854 33.985 13.674v21.9a6 6 0 0012 0v-21.854c13.716-.955 24.901-5.504 31.922-13.103 5.934-6.421 8.603-14.813 7.717-24.268zm-56.537-37.538a1005.45 1005.45 0 01-3.008-.729c-8.178-2.006-15.271-8.024-17.652-14.975-1.921-5.605-.679-11.417 3.591-16.805 4.972-6.273 13.308-9.119 21.965-9.727v43.43c-1.696-.42-3.34-.818-4.896-1.194zm40.004 53.665c-4.728 5.116-12.969 8.341-23.108 9.202v-45.813c13.501 4.464 26.714 11.159 27.693 21.604.568 6.051-.975 11.101-4.585 15.007z"/></svg>