<svg width="1396" height="1014" viewBox="0 -125 350 570" style="background-color:#deca86" xmlns="http://www.w3.org/2000/svg"><circle fill="#080608" cx="179" cy="179" r="179"/><path fill="#fff" d="M267.5 143c0-4.475-2.508-9.254-6.136-12.962a4.468 4.468 0 00-.436-3.233c-2.386-4.269-8.62-6.724-19.7-8.082-4.823-.59-10.564-.974-17.305-1.208 15.461-8.505 21.919-20.96 22.315-26.706.349-5.056-2.713-11.743-7.8-17.037-6.462-6.724-14.995-10.291-24.07-10.021-10.434.302-23.641 7.335-31.746 36.447-5.545-14.51-14.627-29.585-25.143-34.74-15.271-7.484-30.736 6.991-35.255 16.028-4.188 8.376-6.563 17.047 10.144 30.97 7.413 6.177 18.242 9.383 27.909 11.043H117c-9.112 0-19.5 10.388-19.5 19.5-.013 44.667 0 67.664 0 103.001 0 9.112 10.388 19.5 19.5 19.5h131c9.112 0 19.5-10.388 19.5-19.5-.349-40.703 0-67.674 0-103zm-81-10.5H248c4.121 0 10.5 6.378 10.5 10.5v51.833h-72zm28.131-59.752c.229-.006.455-.01.68-.01 8.379 0 14 4.523 16.64 7.27 4.087 4.253 5.427 8.503 5.311 10.182-.393 5.687-13.73 26.264-49.195 27.044 3.016-17.389 10.292-44.014 26.564-44.486zm-84.356 12.765c2.161-4.323 10.25-13.078 18.455-13.078 1.606 0 3.218.336 4.79 1.106 10.029 4.917 20.913 26.084 24.64 42.673-8.496-.245-29.35-1.772-40.028-10.671-12.616-10.512-10.516-14.713-7.857-20.03zM117 132.5h60.5v62.333h-71V143c0-4.122 6.378-10.5 10.5-10.5zm0 124c-4.122 0-10.5-6.379-10.5-10.5v-42.167h71V256.5zm131 0h-61.5v-52.667h72V246c0 4.121-6.379 10.5-10.5 10.5z"/></svg>